<svg width="565" height="286" viewBox="0 0 565 286" fill="none" xmlns="http://www.w3.org/2000/svg">
<path d="M185.325 130.265L339.303 7.60478C341.498 5.85644 344.523 8.3442 343.232 10.8352L300.241 93.7464C299.568 95.043 300.468 96.5997 301.927 96.665L385.524 100.408C388.895 100.559 390.411 104.701 387.935 106.993L207.438 274.057C205.1 276.221 201.54 273.423 203.09 270.639L268.83 152.609C269.5 151.407 268.783 149.903 267.427 149.666L186.679 135.567C184.131 135.122 183.302 131.877 185.325 130.265Z" fill="white"/>
<path fill-rule="evenodd" clip-rule="evenodd" d="M0.0750732 57.4395C0.0750732 32.0344 20.67 11.4395 46.0751 11.4395H184.305C209.71 11.4395 230.305 32.0344 230.305 57.4395V77.2199H195.985V66.3295C195.985 54.1792 186.135 44.3295 173.985 44.3295H56.3951C44.2448 44.3295 34.3951 54.1792 34.3951 66.3294V185.349C34.3951 197.5 44.2448 207.349 56.3951 207.349H173.985C186.135 207.349 195.985 197.5 195.985 185.349V174.46H230.305V194.239C230.305 219.645 209.71 240.239 184.305 240.239H46.0751C20.67 240.239 0.0750732 219.645 0.0750732 194.239V57.4395Z" fill="white"/>
<path fill-rule="evenodd" clip-rule="evenodd" d="M564.925 57.4395C564.925 32.0344 544.33 11.4395 518.925 11.4395H380.695C355.29 11.4395 334.695 32.0344 334.695 57.4394V77.2199H369.015V66.3295C369.015 54.1792 378.865 44.3295 391.015 44.3295H508.605C520.755 44.3295 530.605 54.1792 530.605 66.3294V185.349C530.605 197.5 520.755 207.349 508.605 207.349H391.015C378.865 207.349 369.015 197.5 369.015 185.349V174.46H334.695V194.239C334.695 219.645 355.29 240.239 380.695 240.239H518.925C544.33 240.239 564.925 219.645 564.925 194.239V57.4395Z" fill="white"/>
</svg>
